<?xml version="1.0" encoding="UTF-8" standalone="no"?>
<!DOCTYPE svg PUBLIC "-//W3C//DTD SVG 1.1//EN" "http://www.w3.org/Graphics/SVG/1.1/DTD/svg11.dtd">
<!-- Generated by graphviz version 2.40.1 (20161225.0304)
 -->
<!-- Title: ER_Chen Pages: 1 -->
<svg width="1438pt" height="1161pt" viewBox="0.00 0.00 1438.09 1160.60" xmlns="http://www.w3.org/2000/svg" xmlns:xlink="http://www.w3.org/1999/xlink">
<g id="graph0" class="graph" transform="scale(1 1) rotate(0) translate(4 1156.6)">
<title>ER_Chen</title>
<polygon fill="#ffffff" stroke="transparent" points="-4,4 -4,-1156.6 1434.0864,-1156.6 1434.0864,4 -4,4"/>
<text text-anchor="middle" x="715.0432" y="-1132.4" font-family="Helvetica,sans-Serif" font-size="18.00" fill="#000000">Modelo ER (Chen) — Farmacia mínima</text>
<!-- Usuarios -->
<g id="node1" class="node">
<title>Usuarios</title>
<polygon fill="#eeeeee" stroke="transparent" points="635.8216,-1094 635.8216,-1122 754.8216,-1122 754.8216,-1094 635.8216,-1094"/>
<text text-anchor="start" x="667.7108" y="-1104.4" font-family="Helvetica,sans-Serif" font-weight="bold" font-size="14.00" fill="#000000">Usuarios</text>
<text text-anchor="start" x="647.0944" y="-1076.4" font-family="Helvetica,sans-Serif" text-decoration="underline" font-size="14.00" fill="#000000">usuario_id</text>
<text text-anchor="start" x="711.6638" y="-1076.4" font-family="Helvetica,sans-Serif" font-size="14.00" fill="#000000"> (PK)</text>
<text text-anchor="start" x="671.5958" y="-1047.4" font-family="Helvetica,sans-Serif" font-size="14.00" fill="#000000">nombre</text>
<text text-anchor="start" x="641.6624" y="-1019.4" font-family="Helvetica,sans-Serif" font-size="14.00" fill="#000000">correo (UNIQUE)</text>
<text text-anchor="start" x="646.3076" y="-991.4" font-family="Helvetica,sans-Serif" font-size="14.00" fill="#000000">password_hash</text>
<text text-anchor="start" x="687.5467" y="-963.4" font-family="Helvetica,sans-Serif" font-size="14.00" fill="#000000">rol</text>
<polygon fill="none" stroke="#000000" points="634.3216,-953 634.3216,-1123 755.3216,-1123 755.3216,-953 634.3216,-953"/>
</g>
<!-- Clientes -->
<g id="node2" class="node">
<title>Clientes</title>
<polygon fill="#eeeeee" stroke="transparent" points="603.8216,-881 603.8216,-909 785.8216,-909 785.8216,-881 603.8216,-881"/>
<text text-anchor="start" x="669.5425" y="-891.4" font-family="Helvetica,sans-Serif" font-weight="bold" font-size="14.00" fill="#000000">Clientes</text>
<text text-anchor="start" x="649.3174" y="-863.4" font-family="Helvetica,sans-Serif" text-decoration="underline" font-size="14.00" fill="#000000">cliente_id</text>
<text text-anchor="start" x="708.4408" y="-863.4" font-family="Helvetica,sans-Serif" font-size="14.00" fill="#000000"> (PK)</text>
<text text-anchor="start" x="609.6491" y="-834.4" font-family="Helvetica,sans-Serif" font-size="14.00" fill="#000000">usuario_id (FK → Usuarios)</text>
<text text-anchor="start" x="671.0958" y="-806.4" font-family="Helvetica,sans-Serif" font-size="14.00" fill="#000000">nombre</text>
<text text-anchor="start" x="687.046" y="-778.4" font-family="Helvetica,sans-Serif" font-size="14.00" fill="#000000">rfc</text>
<text text-anchor="start" x="666.8195" y="-750.4" font-family="Helvetica,sans-Serif" font-size="14.00" fill="#000000">direccion</text>
<text text-anchor="start" x="669.9212" y="-722.4" font-family="Helvetica,sans-Serif" font-size="14.00" fill="#000000">telefono</text>
<text text-anchor="start" x="673.8111" y="-694.4" font-family="Helvetica,sans-Serif" font-size="14.00" fill="#000000">puntos</text>
<polygon fill="none" stroke="#000000" points="602.8216,-684 602.8216,-910 786.8216,-910 786.8216,-684 602.8216,-684"/>
</g>
<!-- NotaPuntos -->
<g id="node13" class="node">
<title>NotaPuntos</title>
<polygon fill="none" stroke="#000000" points="1424.2189,-815 878.6891,-815 878.6891,-779 1430.2189,-779 1430.2189,-809 1424.2189,-815"/>
<polyline fill="none" stroke="#000000" points="1424.2189,-815 1424.2189,-809 "/>
<polyline fill="none" stroke="#000000" points="1430.2189,-809 1424.2189,-809 "/>
<text text-anchor="middle" x="1154.454" y="-792.8" font-family="Helvetica,sans-Serif" font-size="14.00" fill="#000000">Clientes.puntos aumenta 4 por cada $100 ENTEROS del total de cada Venta (trigger).</text>
</g>
<!-- Clientes&#45;&gt;NotaPuntos -->
<g id="edge13" class="edge">
<title>Clientes-&gt;NotaPuntos</title>
<path fill="none" stroke="#000000" stroke-dasharray="5,2" d="M787.0061,-797C814.3918,-797 845.9055,-797 878.7213,-797"/>
</g>
<!-- Ventas -->
<g id="node3" class="node">
<title>Ventas</title>
<polygon fill="#eeeeee" stroke="transparent" points="603.8216,-612 603.8216,-640 785.8216,-640 785.8216,-612 603.8216,-612"/>
<text text-anchor="start" x="673.0341" y="-622.4" font-family="Helvetica,sans-Serif" font-weight="bold" font-size="14.00" fill="#000000">Ventas</text>
<text text-anchor="start" x="666.0446" y="-594.4" font-family="Helvetica,sans-Serif" text-decoration="underline" font-size="14.00" fill="#000000">folio</text>
<text text-anchor="start" x="691.7136" y="-594.4" font-family="Helvetica,sans-Serif" font-size="14.00" fill="#000000"> (PK)</text>
<text text-anchor="start" x="677.7024" y="-565.4" font-family="Helvetica,sans-Serif" font-size="14.00" fill="#000000">fecha</text>
<text text-anchor="start" x="614.7038" y="-537.4" font-family="Helvetica,sans-Serif" font-size="14.00" fill="#000000">cliente_id (FK → Clientes)</text>
<text text-anchor="start" x="609.6491" y="-509.4" font-family="Helvetica,sans-Serif" font-size="14.00" fill="#000000">usuario_id (FK → Usuarios)</text>
<text text-anchor="start" x="681.5951" y="-481.4" font-family="Helvetica,sans-Serif" font-size="14.00" fill="#000000">total</text>
<polygon fill="none" stroke="#000000" points="602.8216,-471 602.8216,-641 786.8216,-641 786.8216,-471 602.8216,-471"/>
</g>
<!-- Articulos -->
<g id="node4" class="node">
<title>Articulos</title>
<polygon fill="#eeeeee" stroke="transparent" points="644.8216,-399 644.8216,-427 744.8216,-427 744.8216,-399 644.8216,-399"/>
<text text-anchor="start" x="667.9885" y="-409.4" font-family="Helvetica,sans-Serif" font-weight="bold" font-size="14.00" fill="#000000">Articulos</text>
<text text-anchor="start" x="658.2606" y="-381.4" font-family="Helvetica,sans-Serif" text-decoration="underline" font-size="14.00" fill="#000000">codigo</text>
<text text-anchor="start" x="699.4976" y="-381.4" font-family="Helvetica,sans-Serif" font-size="14.00" fill="#000000"> (PK)</text>
<text text-anchor="start" x="659.4282" y="-352.4" font-family="Helvetica,sans-Serif" font-size="14.00" fill="#000000">descripcion</text>
<text text-anchor="start" x="675.7641" y="-324.4" font-family="Helvetica,sans-Serif" font-size="14.00" fill="#000000">precio</text>
<text text-anchor="start" x="650.4773" y="-296.4" font-family="Helvetica,sans-Serif" font-size="14.00" fill="#000000">en_promocion</text>
<polygon fill="none" stroke="#000000" points="643.8216,-286 643.8216,-428 745.8216,-428 745.8216,-286 643.8216,-286"/>
</g>
<!-- Almacen -->
<g id="node5" class="node">
<title>Almacen</title>
<polygon fill="#eeeeee" stroke="transparent" points="576.8216,-214 576.8216,-242 812.8216,-242 812.8216,-214 576.8216,-214"/>
<text text-anchor="start" x="667.5958" y="-224.4" font-family="Helvetica,sans-Serif" font-weight="bold" font-size="14.00" fill="#000000">Almacen</text>
<text text-anchor="start" x="582.4184" y="-196.4" font-family="Helvetica,sans-Serif" text-decoration="underline" font-size="14.00" fill="#000000">codigo_articulo</text>
<text text-anchor="start" x="676.5502" y="-196.4" font-family="Helvetica,sans-Serif" font-size="14.00" fill="#000000"> (PK, FK → Articulos)</text>
<text text-anchor="start" x="663.7045" y="-167.4" font-family="Helvetica,sans-Serif" font-size="14.00" fill="#000000">existencia</text>
<text text-anchor="start" x="665.2585" y="-139.4" font-family="Helvetica,sans-Serif" font-size="14.00" fill="#000000">ubicacion</text>
<polygon fill="none" stroke="#000000" points="575.8216,-129 575.8216,-243 813.8216,-243 813.8216,-129 575.8216,-129"/>
</g>
<!-- NotaStock -->
<g id="node14" class="node">
<title>NotaStock</title>
<polygon fill="none" stroke="#000000" points="1354.4174,-204 948.4906,-204 948.4906,-168 1360.4174,-168 1360.4174,-198 1354.4174,-204"/>
<polyline fill="none" stroke="#000000" points="1354.4174,-204 1354.4174,-198 "/>
<polyline fill="none" stroke="#000000" points="1360.4174,-198 1354.4174,-198 "/>
<text text-anchor="middle" x="1154.454" y="-181.8" font-family="Helvetica,sans-Serif" font-size="14.00" fill="#000000">Se intenta 1:1 Articulos-Almacen mediante trigger de inserción.</text>
</g>
<!-- Almacen&#45;&gt;NotaStock -->
<g id="edge14" class="edge">
<title>Almacen-&gt;NotaStock</title>
<path fill="none" stroke="#000000" stroke-dasharray="5,2" d="M814.0853,-186C855.1809,-186 902.4679,-186 948.4676,-186"/>
</g>
<!-- Compras -->
<g id="node6" class="node">
<title>Compras</title>
<polygon fill="#eeeeee" stroke="transparent" points="640.8216,-57 640.8216,-85 749.8216,-85 749.8216,-57 640.8216,-57"/>
<text text-anchor="start" x="666.9338" y="-67.4" font-family="Helvetica,sans-Serif" font-weight="bold" font-size="14.00" fill="#000000">Compras</text>
<text text-anchor="start" x="646.7087" y="-39.4" font-family="Helvetica,sans-Serif" text-decoration="underline" font-size="14.00" fill="#000000">compra_id</text>
<text text-anchor="start" x="712.0495" y="-39.4" font-family="Helvetica,sans-Serif" font-size="14.00" fill="#000000"> (PK)</text>
<text text-anchor="start" x="678.2024" y="-10.4" font-family="Helvetica,sans-Serif" font-size="14.00" fill="#000000">fecha</text>
<polygon fill="none" stroke="#000000" points="639.3216,0 639.3216,-86 750.3216,-86 750.3216,0 639.3216,0"/>
</g>
<!-- R_UsuarioClientes -->
<g id="node7" class="node">
<title>R_UsuarioClientes</title>
<polygon fill="none" stroke="#000000" points="255.4108,-935 205.4173,-917 255.4108,-899 305.4043,-917 255.4108,-935"/>
<text text-anchor="middle" x="255.4108" y="-913.4" font-family="Helvetica,sans-Serif" font-size="12.00" fill="#000000">atiende</text>
</g>
<!-- R_UsuarioClientes&#45;&gt;Usuarios -->
<g id="edge1" class="edge">
<title>R_UsuarioClientes-&gt;Usuarios</title>
<path fill="none" stroke="#000000" d="M290.2789,-922.5C394.2715,-922.5 695.0864,-922.5 695.0864,-922.5 695.0864,-922.5 695.0864,-935.5346 695.0864,-952.8463"/>
<text text-anchor="middle" x="701.0031" y="-937.158" font-family="Helvetica,sans-Serif" font-size="10.00" fill="#000000">1</text>
</g>
<!-- R_UsuarioClientes&#45;&gt;Clientes -->
<g id="edge2" class="edge">
<title>R_UsuarioClientes-&gt;Clientes</title>
<path fill="none" stroke="#000000" d="M270.792,-904.5C322.7417,-904.5 494.4843,-904.5 602.805,-904.5"/>
<text text-anchor="middle" x="590.1167" y="-907.4167" font-family="Helvetica,sans-Serif" font-size="10.00" fill="#000000">N</text>
</g>
<!-- R_UsuarioVentas -->
<g id="node8" class="node">
<title>R_UsuarioVentas</title>
<polygon fill="none" stroke="#000000" points="255.4108,-815 204.7465,-797 255.4108,-779 306.0751,-797 255.4108,-815"/>
<text text-anchor="middle" x="255.4108" y="-793.4" font-family="Helvetica,sans-Serif" font-size="12.00" fill="#000000">registra</text>
</g>
<!-- R_UsuarioVentas&#45;&gt;Usuarios -->
<g id="edge3" class="edge">
<title>R_UsuarioVentas-&gt;Usuarios</title>
<path fill="none" stroke="#000000" d="M289.4719,-803C323.9103,-803 372.0864,-803 372.0864,-803 372.0864,-803 372.0864,-1038 372.0864,-1038 372.0864,-1038 540.6291,-1038 634.1176,-1038"/>
<text text-anchor="middle" x="621.4293" y="-1029.0833" font-family="Helvetica,sans-Serif" font-size="10.00" fill="#000000">1</text>
</g>
<!-- R_UsuarioVentas&#45;&gt;Ventas -->
<g id="edge4" class="edge">
<title>R_UsuarioVentas-&gt;Ventas</title>
<path fill="none" stroke="#000000" d="M289.5283,-791C342.6459,-791 439.0864,-791 439.0864,-791 439.0864,-791 439.0864,-633.6667 439.0864,-633.6667 439.0864,-633.6667 529.243,-633.6667 602.4953,-633.6667"/>
<text text-anchor="middle" x="589.807" y="-636.5833" font-family="Helvetica,sans-Serif" font-size="10.00" fill="#000000">N</text>
</g>
<!-- R_ClienteVentas -->
<g id="node9" class="node">
<title>R_ClienteVentas</title>
<polygon fill="none" stroke="#000000" points="255.4108,-655 209.1769,-637 255.4108,-619 301.6447,-637 255.4108,-655"/>
<text text-anchor="middle" x="255.4108" y="-633.4" font-family="Helvetica,sans-Serif" font-size="12.00" fill="#000000">realiza</text>
</g>
<!-- R_ClienteVentas&#45;&gt;Clientes -->
<g id="edge5" class="edge">
<title>R_ClienteVentas-&gt;Clientes</title>
<path fill="none" stroke="#000000" d="M256.0864,-654.7747C256.0864,-682.1491 256.0864,-731.5 256.0864,-731.5 256.0864,-731.5 473.8951,-731.5 602.5809,-731.5"/>
<text text-anchor="middle" x="589.8926" y="-722.5833" font-family="Helvetica,sans-Serif" font-size="10.00" fill="#000000">1</text>
</g>
<!-- R_ClienteVentas&#45;&gt;Ventas -->
<g id="edge6" class="edge">
<title>R_ClienteVentas-&gt;Ventas</title>
<path fill="none" stroke="#000000" d="M274.2917,-626.3333C330.0612,-626.3333 496.7706,-626.3333 602.7736,-626.3333"/>
<text text-anchor="middle" x="590.0853" y="-629.25" font-family="Helvetica,sans-Serif" font-size="10.00" fill="#000000">N</text>
</g>
<!-- R_DetalleVenta -->
<g id="node10" class="node">
<title>R_DetalleVenta</title>
<polygon fill="none" stroke="#000000" points="255.4108,-484.6011 6.4113,-448 255.4108,-411.3989 504.4103,-448 255.4108,-484.6011"/>
<text text-anchor="middle" x="255.4108" y="-451.6" font-family="Helvetica,sans-Serif" font-size="12.00" fill="#000000">Detalle_Venta</text>
<text text-anchor="middle" x="255.4108" y="-437.2" font-family="Helvetica,sans-Serif" font-size="12.00" fill="#000000">{detalle_venta_id, cantidad, precio_unitario}</text>
</g>
<!-- R_DetalleVenta&#45;&gt;Ventas -->
<g id="edge7" class="edge">
<title>R_DetalleVenta-&gt;Ventas</title>
<path fill="none" stroke="#000000" d="M301.1919,-477.9C372.1914,-477.9 510.2676,-477.9 602.532,-477.9"/>
<text text-anchor="middle" x="589.8437" y="-468.9833" font-family="Helvetica,sans-Serif" font-size="10.00" fill="#000000">N</text>
</g>
<!-- R_DetalleVenta&#45;&gt;Articulos -->
<g id="edge8" class="edge">
<title>R_DetalleVenta-&gt;Articulos</title>
<path fill="none" stroke="#000000" d="M311.5088,-419.6C397.4615,-419.6 560.4866,-419.6 643.4869,-419.6"/>
<text text-anchor="middle" x="630.7986" y="-422.5167" font-family="Helvetica,sans-Serif" font-size="10.00" fill="#000000">M</text>
</g>
<!-- R_Stock -->
<g id="node11" class="node">
<title>R_Stock</title>
<polygon fill="none" stroke="#000000" points="255.4108,-240 186.3749,-222 255.4108,-204 324.4467,-222 255.4108,-240"/>
<text text-anchor="middle" x="255.4108" y="-218.4" font-family="Helvetica,sans-Serif" font-size="12.00" fill="#000000">tiene_stock</text>
</g>
<!-- R_Stock&#45;&gt;Articulos -->
<g id="edge11" class="edge">
<title>R_Stock-&gt;Articulos</title>
<path fill="none" stroke="#000000" d="M256.0864,-240.0823C256.0864,-279.4602 256.0864,-369.4667 256.0864,-369.4667 256.0864,-369.4667 527.9009,-369.4667 643.6344,-369.4667"/>
<text text-anchor="middle" x="630.9461" y="-360.55" font-family="Helvetica,sans-Serif" font-size="10.00" fill="#000000">1</text>
</g>
<!-- R_Stock&#45;&gt;Almacen -->
<g id="edge12" class="edge">
<title>R_Stock-&gt;Almacen</title>
<path fill="none" stroke="#000000" d="M324.5521,-222C391.7413,-222 495.1283,-222 575.5961,-222"/>
<text text-anchor="middle" x="562.9078" y="-224.9167" font-family="Helvetica,sans-Serif" font-size="10.00" fill="#000000">0..1</text>
</g>
<!-- R_DetalleCompra -->
<g id="node12" class="node">
<title>R_DetalleCompra</title>
<polygon fill="none" stroke="#000000" points="255.4108,-138.6011 .0892,-102 255.4108,-65.3989 510.7324,-102 255.4108,-138.6011"/>
<text text-anchor="middle" x="255.4108" y="-105.6" font-family="Helvetica,sans-Serif" font-size="12.00" fill="#000000">Detalle_Compra</text>
<text text-anchor="middle" x="255.4108" y="-91.2" font-family="Helvetica,sans-Serif" font-size="12.00" fill="#000000">{detalle_compra_id, cantidad, costo_unitario}</text>
</g>
<!-- R_DetalleCompra&#45;&gt;Articulos -->
<g id="edge10" class="edge">
<title>R_DetalleCompra-&gt;Articulos</title>
<path fill="none" stroke="#000000" d="M415.0864,-115.7808C415.0864,-164.7909 415.0864,-327.7333 415.0864,-327.7333 415.0864,-327.7333 562.7567,-327.7333 643.5139,-327.7333"/>
<text text-anchor="middle" x="630.8255" y="-330.65" font-family="Helvetica,sans-Serif" font-size="10.00" fill="#000000">M</text>
</g>
<!-- R_DetalleCompra&#45;&gt;Compras -->
<g id="edge9" class="edge">
<title>R_DetalleCompra-&gt;Compras</title>
<path fill="none" stroke="#000000" d="M326.9877,-75.6C414.2922,-75.6 560.0084,-75.6 639.3004,-75.6"/>
<text text-anchor="middle" x="626.6121" y="-66.6833" font-family="Helvetica,sans-Serif" font-size="10.00" fill="#000000">N</text>
</g>
</g>
</svg>